<svg id="Layer_1" xmlns="http://www.w3.org/2000/svg" width="500" height="300"><style>.st0{fill-rule:evenodd;clip-rule:evenodd;fill:#FFFFFF;} .st1{fill-rule:evenodd;clip-rule:evenodd;fill:#9D1535;} .st2{fill-rule:evenodd;clip-rule:evenodd;fill:#111111;} .st3{fill-rule:evenodd;clip-rule:evenodd;fill:#777777;} .st4{fill-rule:evenodd;clip-rule:evenodd;fill:#A51A3E;} .st5{fill-rule:evenodd;clip-rule:evenodd;fill:#007BB5;} .st6{fill-rule:evenodd;clip-rule:evenodd;fill:#BB0000;} .st7{fill-rule:evenodd;clip-rule:evenodd;fill:#55ACEE;} .st8{fill-rule:evenodd;clip-rule:evenodd;fill:#334F94;} .st9{fill-rule:evenodd;clip-rule:evenodd;fill:#FBE1B7;} .st10{fill-rule:evenodd;clip-rule:evenodd;fill:#125688;} .st11{fill-rule:evenodd;clip-rule:evenodd;} .st12{fill:#FFFFFF;} .st13{fill:#A42539;} .st14{fill:#7F7F7F;}</style><path class="st0" d="M433 61h13v2h-13v-2zm0 5h9v2h-9v-2zm0 5h13v2h-13v-2z"/><path class="st1" d="M408.8 40c-2.9 0-5.2 2.4-5.2 5.2 0 1 .3 2 .8 2.8l-4 4c-.5.5-.5 1.2 0 1.7.2.2.5.3.8.3.3 0 .6-.1.8-.3l4-4c.8.5 1.8.8 2.8.8 2.9 0 5.2-2.4 5.2-5.2s-2.4-5.3-5.2-5.3zm0 8.8c-1.9 0-3.5-1.6-3.5-3.5s1.6-3.5 3.5-3.5 3.5 1.6 3.5 3.5-1.6 3.5-3.5 3.5zm3.3 39.5c2.3-2.3 2.5-4.7 1-6.2s-3.9-1.5-5.4 0c-.3.3-.5.6-.7.9-.2-.3-.4-.6-.7-.9-1.5-1.5-3.9-1.5-5.3 0-1.5 1.5-1.3 3.9 1 6.2l4.8 4.9c0 .1.1.1.2.1s.1 0 .2-.1l4.9-4.9zM398 89.6c0-2-2.9-1.5-2.9-3.3 0 0 1.2-1.3 1.2-3.7 0-1.4-1.2-2.6-2.6-2.6-1.5 0-2.6 1.2-2.6 2.6v.8s1.1 1 1.1 2.7c0 2.3-1 3.9-1 3.9s.3.3 1 .5h5.6c.2 0 .3-.1.3-.3v-.6h-.1zm-5.2 3.5c0-2-2.9-1.5-2.9-3.3 0 0 1.2-1.3 1.2-3.7 0-1.4-1.2-2.6-2.6-2.6-1.5 0-2.6 1.2-2.6 2.6 0 2.4 1.2 3.7 1.2 3.7 0 1.8-2.9 1.3-2.9 3.3v.6c0 .2.1.3.3.3h8.2c.2 0 .3-.1.3-.3v-.6h-.2zm32-6.9h-.8V84c0-1.7-1.3-3-3-3s-3 1.3-3 3v2.2h-.8c-.4 0-.8.3-.8.8v5.2c0 .4.3.8.8.8h7.5c.4 0 .8-.3.8-.8V87c0-.4-.3-.8-.7-.8zm-5.3-2.2c0-.8.7-1.5 1.5-1.5s1.5.7 1.5 1.5v2.2h-3V84zM331.3 0c-3.7 0-6.8 3-6.8 6.8 0 1.3.4 2.6 1 3.6l-5.1 5.1c-.6.6-.6 1.5 0 2.1.3.3.7.4 1.1.4.4 0 .8-.1 1.1-.4l5.1-5.1c1 .7 2.3 1 3.6 1 3.7 0 6.8-3 6.8-6.8S335 0 331.3 0zm0 11.2c-2.5 0-4.5-2-4.5-4.5s2-4.5 4.5-4.5 4.5 2 4.5 4.5-2.1 4.5-4.5 4.5z"/><path class="st0" d="M369.7 20h-11.3c-1.3 0-2.3 1-2.3 2.3v11.3c0 1.3 1 2.3 2.3 2.3h11.3c1.3 0 2.3-1 2.3-2.3V22.3c0-1.3-1-2.3-2.3-2.3zm-5.7 5c1.7 0 3 1.3 3 3s-1.3 3-3 3-3-1.3-3-3 1.3-3 3-3zm6.3 9c0 .2-.1.3-.3.3h-12c-.2 0-.3-.1-.3-.3v-7h1.8c-.1.3-.1.7-.1 1 0 2.6 2.1 4.7 4.7 4.7s4.7-2.1 4.7-4.7c0-.3 0-.7-.1-1h1.8v7zm0-10c0 .2-.1.3-.3.3h-2c-.2 0-.3-.1-.3-.3v-2c0-.2.1-.3.3-.3h2c.2 0 .3.1.3.3v2zM354 22.5c-.6.3-1.2.4-1.9.5.7-.4 1.2-1.1 1.4-1.8-.6.4-1.3.6-2.1.8-.6-.6-1.5-1-2.4-1-1.8 0-3.3 1.5-3.3 3.3 0 .3 0 .5.1.8-2.7-.1-5.1-1.4-6.8-3.4-.3.5-.4 1-.4 1.6 0 1.1.6 2.1 1.5 2.7-.5 0-1-.2-1.5-.4 0 1.6 1.1 2.9 2.6 3.2-.3.1-.6.1-.9.1-.2 0-.4 0-.6-.1.4 1.3 1.6 2.3 3.1 2.3-1.1.9-2.5 1.6-4.1 1.6-.3 0-.5 0-.8-.1 1.4.9 3.2 1.3 5 1.3 6 0 9.3-5 9.3-9.3v-.4c.8-.4 1.4-1 1.8-1.7z"/><path class="st1" d="M359.9 80h-7c-.5 0-.9.4-.9.9v12.2c0 .5.4.9.9.9h7c.5 0 .9-.4.9-.9V80.9c0-.5-.4-.9-.9-.9zm-3.5 13.1c-.5 0-.9-.4-.9-.9s.4-.9.9-.9.9.4.9.9-.4.9-.9.9zm2.9-2.6h-5.8v-8.2h5.8v8.2zM343 88.1l7-5.2c0-.5-.4-.9-.9-.9h-12.2c-.5 0-.9.4-.9.9l7 5.2zm0 1.6l-7-5.2v7.2c0 .5.4.9.9.9h12.2c.5 0 .9-.4.9-.9v-7.2l-7 5.2zM451 80c-3.9 0-7 3.1-7 7s3.1 7 7 7 7-3.1 7-7-3.1-7-7-7zm0 12.2c-.6 0-1.2-.5-1.2-1.2 0-.6.5-1.2 1.2-1.2.6 0 1.2.5 1.2 1.2s-.5 1.2-1.2 1.2zm.9-4v.3h-1.8v-.6c0-1.8 2.3-1.8 2.3-2.9 0-.6-.6-1.2-1.5-1.2s-1.8.9-1.8.9l-1.2-1.2s1.2-1.5 2.9-1.5c1.8 0 3.2 1.2 3.2 2.9.2 2.4-2.1 2.4-2.1 3.3zm-120.5-3l-7.2 7.2-.1.1-3.7 1.5h-.1c-.1 0-.1 0-.2-.1s-.1-.2-.1-.3l1.5-3.7s0-.1.1-.1l7.2-7.2 2.6 2.6zm2.3-3.6c.3.4.3.9 0 1.2l-1.5 1.5-2.6-2.6 1.5-1.5c.3-.3.9-.3 1.2 0l1.4 1.4zm.3-40.7c0-.5-.4-.9-.9-.9h-12.2c-.5 0-.9.4-.9.9v12.2c0 .5.4.9.9.9h6.6v-5.4h-1.8v-2h1.8v-1.7c0-1.6 1-2.7 2.9-2.7.8 0 1.4.1 1.4.1v1.8h-1.3c-.6 0-.9.3-.9.9v1.6h2l-.3 2h-1.8V54h3.5c.5 0 .9-.4.9-.9l.1-12.2zm16 1.4c-.5.2-1.1.4-1.7.5.6-.4 1.1-.9 1.3-1.6-.5.3-1.2.6-1.8.7-.5-.5-1.3-.9-2.1-.9-1.6 0-2.9 1.3-2.9 2.9 0 .2 0 .5.1.7-2.4-.1-4.5-1.2-5.9-2.9-.2.4-.4.9-.4 1.4 0 1 .5 1.9 1.3 2.4-.5 0-.9-.1-1.3-.4 0 1.4 1 2.6 2.3 2.8-.2.1-.5.1-.8.1-.2 0-.4 0-.5-.1.4 1.1 1.4 2 2.7 2-1 .8-2.2 1.4-3.6 1.4h-.7c1.3.8 2.8 1.2 4.4 1.2 5.3 0 8.2-4.4 8.2-8.2v-.4c.5-.5 1-1 1.4-1.6zm14-2.3h-10c-1.1 0-2 .9-2 2v10c0 1.1.9 2 2 2h9.9c1.1 0 2-.9 2-2V42c.1-1.1-.8-2-1.9-2zm-5 4.4c1.5 0 2.6 1.2 2.6 2.6 0 1.5-1.2 2.6-2.6 2.6-1.5 0-2.6-1.2-2.6-2.6 0-1.5 1.2-2.6 2.6-2.6zm5.5 7.8c0 .2-.1.3-.3.3h-10.5c-.2 0-.3-.1-.3-.3v-6.1h1.6c-.1.3-.1.6-.1.9 0 2.3 1.8 4.1 4.1 4.1s4.1-1.8 4.1-4.1c0-.3 0-.6-.1-.9h1.6l-.1 6.1zm0-8.7c0 .2-.1.3-.3.3h-1.8c-.2 0-.3-.1-.3-.3v-1.8c0-.2.1-.3.3-.3h1.8c.2 0 .3.1.3.3v1.8zM391 42c-7 0-7 0-7 5s0 5 7 5 7 0 7-5 0-5-7-5zm-1.8 7.6v-5.2l4.4 2.6-4.4 2.6zm-20.9-4.9v9h2.9v-9h-2.9zm7.6 3.8c0-1.2.7-1.8 1.6-1.8.9 0 1.6.6 1.6 2v5h2.9v-5.2c0-2.6-1.5-4.1-3.5-4.1-1.2 0-2 .7-2.6 1.5l-.1-1.2h-2.9v9h2.9l.1-5.2zm-6.2-5.3c1.1 0 1.8-.7 1.8-1.6 0-.9-.7-1.6-1.7-1.6-1.1 0-1.8.7-1.8 1.6 0 .9.7 1.6 1.7 1.6zm48.6 8c0-.2-.1-.3-.3-.3h-1.8c-.2 0-.3.1-.3.3V53c0 .2.1.3.3.3h1.8c.2 0 .3-.1.3-.3v-1.8zm0-5c0-.2-.1-.3-.3-.3h-1.8c-.2 0-.3.1-.3.3V48c0 .2.1.3.3.3h1.8c.2 0 .3-.1.3-.3v-1.8zm0-4.9c0-.2-.1-.3-.3-.3h-1.8c-.2 0-.3.1-.3.3V43c0 .2.1.3.3.3h1.8c.2 0 .3-.1.3-.3v-1.7zm11.7 9.9c0-.2-.1-.3-.3-.3h-9.9c-.2 0-.3.1-.3.3V53c0 .2.1.3.3.3h9.9c.2 0 .3-.1.3-.3v-1.8zm0-5c0-.2-.1-.3-.3-.3h-9.9c-.2 0-.3.1-.3.3V48c0 .2.1.3.3.3h9.9c.2 0 .3-.1.3-.3v-1.8zm0-4.9c0-.2-.1-.3-.3-.3h-9.9c-.2 0-.3.1-.3.3V43c0 .2.1.3.3.3h9.9c.2 0 .3-.1.3-.3v-1.7z"/><path class="st0" d="M349 0c-5 0-9 4-9 9s4 9 9 9 9-4 9-9-4-9-9-9zm1.1 14.6h-2.2V8.3h2.2v6.3zM349 6.4c-.8 0-1.5-.7-1.5-1.5s.7-1.5 1.5-1.5 1.5.7 1.5 1.5-.7 1.5-1.5 1.5zM445.1 40H444v1.8c0 .5-.4.9-.9.9s-.9-.4-.9-.9V40h-6.4v1.8c0 .5-.4.9-.9.9s-.9-.4-.9-.9V40h-1.2c-.5 0-.9.4-.9.9v12.2c0 .5.4.9.9.9H445c.5 0 .9-.4.9-.9V40.9c.1-.5-.3-.9-.8-.9zm-8.7 12H434v-2.3h2.3V52zm0-4.1H434v-2.3h2.3v2.3h.1zm3.8 4.1h-2.3v-2.3h2.3V52zm0-4.1h-2.3v-2.3h2.3v2.3zM444 52h-2.3v-2.3h2.3V52zm0-4.1h-2.3v-2.3h2.3v2.3z"/><path class="st2" d="M408.8 60c-2.9 0-5.2 2.4-5.2 5.2 0 1 .3 2 .8 2.8l-4 3.9c-.5.5-.5 1.2 0 1.7.2.2.5.3.8.3.3 0 .6-.1.8-.3l4-4c.8.5 1.8.8 2.8.8 2.9 0 5.2-2.4 5.2-5.2s-2.4-5.2-5.2-5.2zm0 8.8c-1.9 0-3.5-1.6-3.5-3.5s1.6-3.5 3.5-3.5 3.5 1.6 3.5 3.5-1.6 3.5-3.5 3.5z"/><path class="st0" d="M418.3 71.2c0-.2-.1-.3-.3-.3h-1.8c-.2 0-.3.1-.3.3V73c0 .2.1.3.3.3h1.8c.2 0 .3-.1.3-.3v-1.8zm0-5c0-.2-.1-.3-.3-.3h-1.8c-.2 0-.3.1-.3.3V68c0 .2.1.3.3.3h1.8c.2 0 .3-.1.3-.3v-1.8zm0-4.9c0-.2-.1-.3-.3-.3h-1.8c-.2 0-.3.1-.3.3V63c0 .2.1.3.3.3h1.8c.2 0 .3-.1.3-.3v-1.7zm11.7 9.9c0-.2-.1-.3-.3-.3h-9.9c-.2 0-.3.1-.3.3V73c0 .2.1.3.3.3h9.9c.2 0 .3-.1.3-.3v-1.8zm0-5c0-.2-.1-.3-.3-.3h-9.9c-.2 0-.3.1-.3.3V68c0 .2.1.3.3.3h9.9c.2 0 .3-.1.3-.3v-1.8zm0-4.9c0-.2-.1-.3-.3-.3h-9.9c-.2 0-.3.1-.3.3V63c0 .2.1.3.3.3h9.9c.2 0 .3-.1.3-.3v-1.7z"/><path class="st3" d="M438.7 0c-2 0-3.7 1.6-3.7 3.7 0 .6.2 1.3.5 1.8l3 5.4c0 .1.1.1.2.1s.2 0 .2-.1l3-5.4c.3-.5.5-1.1.5-1.8-.1-2.1-1.7-3.7-3.7-3.7zm0 5c-.8 0-1.4-.6-1.4-1.4 0-.8.6-1.4 1.4-1.4.8 0 1.4.6 1.4 1.4-.1.8-.7 1.4-1.4 1.4zm12.8-5c-3 0-5.5 2.5-5.5 5.5s2.5 5.5 5.5 5.5 5.5-2.5 5.5-5.5-2.5-5.5-5.5-5.5zm2.4 7.9L451 6.3c-.1 0-.1-.1-.2-.1-.2-.2-.3-.4-.3-.7V1.4h.9l.8 3.7 2.2 2.2-.5.6z"/><path class="st1" d="M427.7 0c-2 0-3.7 1.6-3.7 3.7 0 .6.2 1.3.5 1.8l3 5.4c0 .1.1.1.2.1s.2 0 .2-.1l3-5.4c.3-.5.5-1.1.5-1.8-.1-2.1-1.7-3.7-3.7-3.7zm0 5c-.8 0-1.4-.6-1.4-1.4 0-.8.6-1.4 1.4-1.4.8 0 1.4.6 1.4 1.4-.1.8-.7 1.4-1.4 1.4zm-20.8 1.7c0-.1 0-.2-.1-.3L400.4 0h-.3c-.1 0-.1.1-.1.2v9.2c0 .1 0 .2.1.2h.1c.1 0 .1 0 .2-.1l2-2 1.6 3.3c0 .1.2.2.3.1l1-.5c.1-.1.2-.2.1-.3l-1.6-3.3h2.9c0 .1.1 0 .2-.1zm13.4-4.6h-2.8V.9c0-.3-.2-.6-.5-.7-.3-.1-.8-.2-1.5-.2s-1.2.1-1.5.2c-.4.1-.5.4-.5.7V2h-2.8c-.4 0-.7.3-.7.7v6.2c0 .4.3.7.7.7h9.6c.4 0 .7-.3.7-.7V2.8c0-.4-.3-.7-.7-.7zm-5.7-1h1.8V2h-1.8v-.9z"/><path class="st4" d="M381.4 80.3c0-.1-.1-.2-.2-.3-.1 0-.2 0-.3.1l-2.2 2.2c-1.1-1.1-2.7-1.7-4.3-1.7-3.5 0-6.4 2.9-6.4 6.4 0 3.5 2.9 6.4 6.4 6.4 1.7 0 3.2-.6 4.3-1.7 0 0 .1-.1.1-.2s0-.2-.1-.2l-1.2-1.2c-.1-.1-.3-.1-.4 0-.7.6-1.7 1-2.7 1-2.2 0-4.1-1.8-4.1-4.1 0-2.2 1.8-4.1 4.1-4.1 1 0 2 .4 2.7 1l-1.7 1.7c-.1.1-.1.2-.1.3 0 .1.2.2.3.2h5.5c.2 0 .3-.1.3-.3v-5.5z"/><path class="st5" d="M368.3 64.7v9h2.9v-9h-2.9zm7.6 3.8c0-1.2.7-1.8 1.6-1.8.9 0 1.6.6 1.6 2v5h2.9v-5.2c0-2.6-1.5-4.1-3.5-4.1-1.2 0-2 .7-2.6 1.5l-.1-1.2h-2.9v9h2.9l.1-5.2zm-6.2-5.3c1.1 0 1.8-.7 1.8-1.6 0-.9-.7-1.6-1.7-1.6-1.1 0-1.8.7-1.8 1.6 0 .9.7 1.6 1.7 1.6z"/><path class="st6" d="M391 62c-7 0-7 0-7 5s0 5 7 5 7 0 7-5 0-5-7-5zm-1.8 7.6v-5.2l4.4 2.6-4.4 2.6z"/><path class="st7" d="M350 62.3c-.5.2-1.1.4-1.7.5.6-.4 1.1-.9 1.3-1.6-.5.3-1.2.6-1.8.7-.5-.5-1.3-.9-2.1-.9-1.6 0-2.9 1.3-2.9 2.9 0 .2 0 .5.1.7-2.4-.1-4.5-1.2-5.9-2.9-.2.4-.4.9-.4 1.4 0 1 .5 1.9 1.3 2.4-.5 0-.9-.1-1.3-.4 0 1.4 1 2.6 2.3 2.8-.2.1-.5.1-.8.1-.2 0-.4 0-.5-.1.4 1.1 1.4 2 2.7 2-1 .8-2.2 1.4-3.6 1.4h-.7c1.3.8 2.8 1.2 4.4 1.2 5.3 0 8.2-4.4 8.2-8.2v-.4c.5-.5 1-1 1.4-1.6z"/><path class="st8" d="M334 60.9c0-.5-.4-.9-.9-.9h-12.2c-.5 0-.9.4-.9.9v12.2c0 .5.4.9.9.9h6.6v-5.4h-1.8v-2h1.8v-1.7c0-1.6 1-2.7 2.9-2.7.8 0 1.4.1 1.4.1v1.8h-1.3c-.6 0-.9.3-.9.9v1.6h2l-.3 2h-1.8V74h3.5c.5 0 .9-.4.9-.9l.1-12.2z"/><path class="st1" d="M428.6 91.5c1.1-1.3 3.5-1.9 6.4-1.9v2.6c0 .1.1.2.2.3h.1c.1 0 .1 0 .2-.1l6.4-5c.1 0 .1-.1.1-.2s0-.2-.1-.2l-6.4-5c-.1-.1-.2-.1-.3 0-.1 0-.2.1-.2.3v2.6c-4.4 0-6.9 2.5-7 6.4 0 .1.1.2.2.3h.1c.1 0 .2 0 .3-.1z"/><path class="st9" d="M460.5 50.4c.1.1.2.1.2.1h.1c.1 0 .2-.1.2-.3-.1-3.7-2.4-6-6.5-6v-2.4c0-.1-.1-.2-.2-.2h-.3l-6 4.6c-.1 0-.1.1-.1.2s0 .2.1.2l6 4.6s.1.1.2.1h.1c.1 0 .2-.1.2-.2v-2.4c2.7 0 5 .5 6 1.7zm15.4-5.1c.1-.1.1-.2.1-.3 0-.1-.2-.2-.3-.2h-4.1l-1.8-4.7c0-.1-.1-.2-.3-.2-.1 0-.2.1-.3.2l-1.8 4.7h-4.2c-.1 0-.2.1-.3.2 0 .1 0 .2.1.3l3.2 3.2-.8 4.2c0 .1 0 .2.1.3.1.1.2.1.3 0l3.6-2.3L473 53h.2c.1-.1.1-.2.1-.3l-.8-4.2 3.4-3.2zm11.3 5.8c0-.1 0-.1-.1-.2l-1.6-1.6s-.1-.1-.2-.1h-4.2c-.2 0-.3-.1-.3-.3v-2.4h1.4c.1 0 .2-.1.3-.2 0-.1 0-.2-.1-.3l-2.4-2.4c-.1-.1-.3-.1-.4 0l-2.4 2.4c-.1.1-.1.2-.1.3 0 .1.2.2.3.2h1.4v2.4c0 1.4 1.1 2.4 2.4 2.4h5.8c0 .1.2 0 .2-.2zm2.7-4.1c.1-.1.1-.2.1-.3 0-.1-.2-.2-.3-.2h-1.4v-2.4c0-1.3-1.1-2.4-2.4-2.4h-5.8c-.2 0-.3.1-.3.3 0 .1 0 .1.1.2l1.6 1.6s.1.1.2.1h4.2c.2 0 .3.1.3.3v2.4h-1.4c-.1 0-.2.1-.3.2 0 .1 0 .2.1.3l2.4 2.4c.1.1.1.1.2.1s.1 0 .2-.1l2.5-2.5z"/><path class="st0" d="M460.5 70.4c.1.1.2.1.2.1h.1c.1 0 .2-.1.2-.3-.1-3.7-2.4-6-6.5-6v-2.4c0-.1-.1-.2-.2-.2h-.3l-6 4.6c-.1 0-.1.1-.1.2s0 .2.1.2l6 4.6s.1.1.2.1h.1c.1 0 .2-.1.2-.2v-2.4c2.7 0 5 .5 6 1.7zm15.4-5.1c.1-.1.1-.2.1-.3 0-.1-.2-.2-.3-.2h-4.1l-1.8-4.7c0-.1-.1-.2-.3-.2-.1 0-.2.1-.3.2l-1.8 4.7h-4.2c-.1 0-.2.1-.3.2 0 .1 0 .2.1.3l3.2 3.2-.8 4.2c0 .1 0 .2.1.3.1.1.2.1.3 0l3.6-2.3L473 73h.2c.1-.1.1-.2.1-.3l-.8-4.2 3.4-3.2zm11.3 5.8c0-.1 0-.1-.1-.2l-1.6-1.6c0-.1-.1-.1-.2-.1h-4.2c-.2 0-.3-.1-.3-.3v-2.4h1.4c.1 0 .2-.1.3-.2 0-.1 0-.2-.1-.3l-2.4-2.4c-.1-.1-.3-.1-.4 0l-2.4 2.4c-.1.1-.1.2-.1.3 0 .1.2.2.3.2h1.4v2.4c0 1.4 1.1 2.4 2.4 2.4h5.8c0 .1.2 0 .2-.2zm2.7-4.1c.1-.1.1-.2.1-.3 0-.1-.2-.2-.3-.2h-1.4v-2.4c0-1.3-1.1-2.4-2.4-2.4h-5.8c-.2 0-.3.1-.3.3 0 .1 0 .1.1.2l1.6 1.6s.1.1.2.1h4.2c.2 0 .3.1.3.3v2.4h-1.4c-.1 0-.2.1-.3.2 0 .1 0 .2.1.3l2.4 2.4c.1.1.1.1.2.1s.1 0 .2-.1l2.5-2.5z"/><path class="st10" d="M364 60h-10c-1.1 0-2 .9-2 2v10c0 1.1.9 2 2 2h9.9c1.1 0 2-.9 2-2V62c.1-1.1-.8-2-1.9-2zm-5 4.4c1.5 0 2.6 1.2 2.6 2.6 0 1.4-1.2 2.6-2.6 2.6-1.5 0-2.6-1.2-2.6-2.6 0-1.4 1.2-2.6 2.6-2.6zm5.5 7.8c0 .2-.1.3-.3.3h-10.5c-.2 0-.3-.1-.3-.3v-6.1h1.6c-.1.3-.1.6-.1.9 0 2.3 1.8 4.1 4.1 4.1s4.1-1.8 4.1-4.1c0-.3 0-.6-.1-.9h1.6l-.1 6.1zm0-8.7c0 .2-.1.3-.3.3h-1.8c-.2 0-.3-.1-.3-.3v-1.8c0-.2.1-.3.3-.3h1.8c.2 0 .3.1.3.3v1.8z"/><path class="st0" d="M336 21c0-.5-.5-1-1-1h-14c-.5 0-1 .5-1 1v14c0 .5.5 1 1 1h7.6v-6.2h-2v-2.3h2v-2c0-1.8 1.1-3 3.3-3 1 0 1.6.1 1.6.1v2.1H332c-.7 0-1 .4-1 1v1.8h2.3l-.3 2.3h-2V36h4c.5 0 1-.5 1-1V21zm38.3 4.3v10.3h3.3V25.3h-3.3zm8.7 4.4c0-1.3.9-2 1.9-2s1.8.7 1.8 2.3v5.7h3.3v-6c0-3-1.7-4.7-4-4.7-1.3 0-2.3.8-3 1.8l-.1-1.4h-3.3c0 .4.1 2.3.1 2.3v8h3.3v-6zm-7-6c1.2 0 2-.8 2-1.8s-.8-1.8-2-1.8-2 .8-2 1.8.8 1.8 2 1.8zm24-1.2c-8 0-8 0-8 5.7s0 5.7 8 5.7 8 0 8-5.7 0-5.7-8-5.7zm-2 8.7v-6l5 3-5 3zm26.8 75h-.8V104c0-1.7-1.3-3-3-3s-3 1.3-3 3v2.2h-.8c-.4 0-.8.3-.8.8v5.2c0 .4.3.8.8.8h7.5c.4 0 .8-.3.8-.8V107c0-.4-.3-.8-.7-.8zm-5.3-2.2c0-.8.7-1.5 1.5-1.5s1.5.7 1.5 1.5v2.2h-3V104z"/><path class="st1" d="M472 87.1c0-.1 0-.2-.1-.3l-5.7-5.7c-.1-.1-.3-.1-.4 0l-5.7 5.7c-.1.1-.1.2-.1.3 0 .1.1.2.2.2h1.2v5.5c0 .1.1.3.3.3h2.5c.1 0 .3-.1.3-.3v-4.2h3v4.2c0 .1.1.3.3.3h2.5c.1 0 .3-.1.3-.3v-5.5h1.2l.2-.2z"/><path class="st0" d="M418.5 30.4c.1-.1.1-.1.1-.2s0-.2-.1-.2l-2.4-2.4c-.1-.1-.3-.1-.5 0l-2.8 2.8-2.2-2.3c-.1-.1-.2-.1-.4-.1-.1.1-.2.2-.2.3v7.3c0 .2.1.3.3.3h7.3c.2 0 .3-.1.3-.3 0-.1 0-.2-.1-.2l-2.2-2.2 2.9-2.8zm7.5-10.1c0-.2-.1-.3-.3-.3h-7.3c-.1 0-.3.1-.3.2s0 .3.1.4l2.3 2.2-2.8 2.8c-.1.1-.1.3 0 .5l2.4 2.4c.1.1.1.1.2.1s.2 0 .2-.1l2.8-2.8 2.2 2.3c.1.1.1.1.2.1h.1c.1-.1.2-.2.2-.3v-7.5z"/><path class="st1" d="M328 110.3c-.6-.6-.6-1.5 0-2l7.1-7.1c.6-.6 1.5-.6 2 0 .6.6.6 1.5 0 2l-7.1 7.1c-.5.5-1.4.5-2 0z"/><path class="st1" d="M320.9 101.2c.6-.6 1.5-.6 2 0l7.1 7.1c.6.6.6 1.5 0 2-.6.6-1.5.6-2 0l-7.1-7.1c-.6-.6-.6-1.5 0-2z"/><path class="st11" d="M464.7 0c-2 0-3.7 1.6-3.7 3.7 0 .6.2 1.3.5 1.8l3 5.4c0 .1.1.1.2.1s.2 0 .2-.1l3-5.4c.3-.5.5-1.1.5-1.8-.1-2.1-1.7-3.7-3.7-3.7zm0 5c-.8 0-1.4-.6-1.4-1.4 0-.8.6-1.4 1.4-1.4.8 0 1.4.6 1.4 1.4-.1.8-.7 1.4-1.4 1.4zm12.8-5c-3 0-5.5 2.5-5.5 5.5s2.5 5.5 5.5 5.5 5.5-2.5 5.5-5.5-2.5-5.5-5.5-5.5zm2.4 7.9L477 6.3c-.1 0-.1-.1-.2-.1-.2-.2-.3-.4-.3-.7V1.4h.9l.8 3.7 2.2 2.2-.5.6z"/><path class="st0" d="M371.3 0c-3.7 0-6.8 3-6.8 6.8 0 1.3.4 2.6 1 3.6l-5.1 5.1c-.6.6-.6 1.5 0 2.1.3.3.7.4 1.1.4.4 0 .8-.1 1.1-.4l5.1-5.1c1 .7 2.3 1 3.6 1 3.7 0 6.8-3 6.8-6.8S375 0 371.3 0zm0 11.2c-2.5 0-4.5-2-4.5-4.5s2-4.5 4.5-4.5 4.5 2 4.5 4.5-2.1 4.5-4.5 4.5z"/><path class="st1" d="M395 0c.6 0 1 .4 1 1v8c0 .6-.4 1-1 1h-1.7V6.7h-10.7V10H381c-.6 0-1-.4-1-1V1c0-.6.4-1 1-1h14zm-2 4c.6 0 1-.4 1-1s-.4-1-1-1-1 .4-1 1 .4 1 1 1zm-9 4h8v7.7c0 .2-.1.3-.3.3h-7.3c-.2 0-.3-.1-.3-.3V8zM0 0v110.7l43.4 28.6 44-28.6V.1L0 0zM0 162v113.3l36.2 23.8 36.7-23.8V162H0z"/><g id="RGB_Small_Scale_Negative"><path class="st12" d="M48.2 77.7c-2.1-.4-3.8-2.1-4.2-4.2-.4 2.1-2.1 3.8-4.2 4.2 2.1.4 3.8 2.1 4.2 4.2.5-2.2 2.1-3.8 4.2-4.2z"/><path class="st12" d="M68.2 85.6v7.8l-4.6-7.8h-2.8l1 1.5v10.3H64V90l4.3 7.4h2.1V85.6h-2.2zM78 91l-1.8-1.1c-.6-.4-.9-.8-.9-1.2 0-.8.6-1.2 1.7-1.2.9 0 1.8.3 2.5.8l.1.1V86c-.8-.4-1.7-.6-2.5-.6-3 0-4 1.7-4 3.3 0 1.3.7 2.5 1.9 3.1l1.8 1.1c.7.4 1 .9 1 1.4 0 .8-.7 1.3-1.7 1.3s-2-.4-2.8-1l-.1-.1v2.4c.9.4 2 .7 3 .7 1.9 0 3.9-1.1 3.9-3.4-.1-1.4-.7-2.3-2.1-3.2zm-33.9 3.8l-2.7-9.2H39l3.9 11.8h2.3l3.9-11.8h-2.4l-2.6 9.2zm14.2-7.2l-.3-2h-6.6v11.8h6.8l.3-2h-5v-3.3H57v-2h-3.5v-2.5h4.8zm-21.3 0l-.3-2h-6.6v11.8h6.7l.3-2h-5v-3.3h3.5v-2h-3.4v-2.5H37zM14.6 91l-1.8-1.1c-.6-.4-.9-.8-.9-1.2 0-.8.6-1.2 1.6-1.2.9 0 1.8.3 2.5.8l.1.1V86c-.8-.4-1.7-.6-2.5-.6-2.9 0-3.9 1.7-3.9 3.3 0 1.3.7 2.5 1.9 3.1l1.8 1.1c.7.4 1 .9 1 1.4 0 .8-.7 1.3-1.7 1.3s-2-.4-2.8-1l-.1-.1v2.4h.1c.9.4 1.9.7 2.9.7 1.9 0 3.9-1.1 3.9-3.4-.1-1.4-.7-2.3-2.1-3.2zm3.6-3.4h3.7v9.8H24v-9.8h3.7l.3-2h-9.8v2zm24.1-49.8l-2.5 1.3-2.8 3.4 1.6.9-1.5 3.6-2.3 1v-2.8l-7 8.6L44 46.3l-1.7-8.5zm11 10.3v-4.5l-1.2-1.8-2.7 1.6L51 47l2.3 1.1zm-11.9 7.8c0-1-.4-1.9-1.2-2.6-.8.9-1.2 2.1-1.2 3.3v10l2.3-.8.1-9.9zm-4.3 1.8c0-1-.4-1.9-1.2-2.6-.8.9-1.2 2.1-1.2 3.3v9.7l2.3-.8c.1.1.1-9.6.1-9.6zm-4.3 1.9c0-1-.4-1.9-1.1-2.6-.8.9-1.2 2.1-1.2 3.3v9.3l2.3-.8v-9.2zm27.5 14.1v1.5l-16.2-5.4-16.3 5.4V55.3l16.3-7.5v20.5l16.2 5.4zM40.7 37.2l1.7-.9v-3.1l-1.7.9v3.1zm7.7-4.1l-2.6-1.4h-3.4v1.5h3.4l1.3.7v1.7l1.2-.6s0-1.9.1-1.9zm-4.3 14.7l16.2 7.5v-1.5l-16.2-7.5v1.5zm-1.8-11.5v1.5h3.4l2.6 1.3v-1.5l-2.6-1.3h-3.4zM56.5 57c-.7.7-1.2 1.6-1.2 2.6v9.3l2.3.8v-9.4c.1-1.2-.3-2.4-1.1-3.3zm-4.3-1.8c-.7.6-1.2 1.6-1.2 2.6v9.7l2.3.8v-9.7c.1-1.3-.3-2.5-1.1-3.4zm-4.4-1.9c-.7.7-1.2 1.6-1.2 2.6v10l2.3.8v-10c.2-1.2-.3-2.4-1.1-3.4zm-5.5-21.6l-2.6 1.4L44 19.2l-1.7 12.5z"/></g><g id="RGB_Small_Scale_Negative-2"><path class="st12" d="M39.3 248c-1.7-.3-3.1-1.7-3.4-3.4-.3 1.7-1.7 3.1-3.4 3.4 1.7.3 3.1 1.7 3.4 3.4.3-1.7 1.7-3.1 3.4-3.4z"/><path class="st12" d="M55.8 254.5v6.5l-3.8-6.5h-2.3l.8 1.2v8.5h1.8v-6.1l3.6 6.1h1.7v-9.7h-1.8zm8 4.5l-1.5-.9c-.5-.3-.8-.6-.8-1 0-.6.5-1 1.4-1 .7 0 1.5.3 2 .7l.1.1V255c-.6-.3-1.4-.5-2.1-.5-2.4 0-3.2 1.4-3.2 2.7 0 1.1.6 2.1 1.6 2.5l1.5.9c.6.4.9.7.9 1.1 0 .7-.6 1.1-1.4 1.1-.8 0-1.6-.3-2.3-.8l-.1-.1v2c.8.4 1.6.6 2.4.6 1.6 0 3.2-.9 3.2-2.8 0-1.2-.6-2.2-1.7-2.7zm-27.9 3.1l-2.2-7.6h-1.9l3.2 9.7h1.9l3.2-9.7h-2l-2.2 7.6zm11.7-5.9l-.3-1.7H42v9.7h5.6l.3-1.7h-4.1v-2.7h2.8v-1.7h-2.8v-2l3.8.1zm-17.6 0l-.3-1.7h-5.4v9.7h5.6l.3-1.7h-4.1v-2.7h2.8v-1.7h-2.8v-2l3.9.1zM11.6 259l-1.5-.9c-.5-.3-.8-.6-.8-1 0-.6.5-1 1.4-1 .7 0 1.4.3 2 .7l.1.1V255c-.6-.3-1.4-.5-2.1-.5-2.4 0-3.2 1.4-3.2 2.7 0 1.1.6 2.1 1.6 2.5l1.5.9c.6.4.9.7.9 1.1 0 .7-.6 1.1-1.4 1.1-.8 0-1.6-.3-2.3-.8l-.1-.1v2c.8.4 1.6.6 2.4.6 1.6 0 3.2-.9 3.2-2.8 0-1.2-.7-2.2-1.7-2.7zm3-2.8h3v8.1h1.7v-8.1h3l.3-1.7h-8.1l.1 1.7zm19.9-41.1l-2.1 1.1-2.3 2.8 1.3.8-1.2 3-1.9.9v-2.3l-5.7 7 13.4-6.2-1.5-7.1zm9.1 8.5V220l-1-1.5-2.2 1.3 1.2 3 2 .8zm-9.8 6.5c0-.8-.4-1.6-1-2.1-.7.8-1 1.7-1 2.8v8.3l1.9-.7.1-8.3zm-3.6 1.5c0-.8-.4-1.6-1-2.1-.7.8-1 1.7-1 2.8v8l1.9-.7.1-8zm-3.6 1.5c0-.8-.4-1.6-1-2.1-.7.8-1 1.7-1 2.8v7.7l1.9-.6.1-7.8zm22.7 11.6v1.2l-13.4-4.4-13.4 4.4v-16.4l13.4-6.2v16.9l13.4 4.5zm-16.2-30.1l1.4-.7v-2.6l-1.4.8v2.5zm6.3-3.3l-2.1-1.1h-2.8v1.2h2.8l1.1.6v1.4l1-.5v-1.6zm-3.5 12.1l13.4 6.2v-1.2l-13.4-6.2v1.2zm-1.4-9.5v1.2h2.8l2.1 1.1V215l-2.1-1.1h-2.8zm11.7 17c-.6.5-1 1.3-1 2.1v7.6l1.9.6v-7.7c0-.8-.3-1.8-.9-2.6zm-3.6-1.5c-.6.5-1 1.3-1 2.1v8l1.9.7v-8c.1-1-.3-2-.9-2.8zm-3.6-1.5c-.6.5-1 1.3-1 2.1v8.2l2 .7v-8.3c0-.9-.3-1.9-1-2.7zm-4.5-17.7l-2.1 1.1 3.5-11.5-1.4 10.4z"/></g><g id="RGB_Wordmark"><path class="st13" d="M266 31.6v22l-12.8-22h-7.9l2.7 4.2v29.1h6V44.1l12.1 20.7h5.8V31.6H266zm27.4 15.2l-5-3.1c-1.8-1.1-2.6-2.2-2.6-3.5 0-2.2 1.8-3.5 4.6-3.5 2.5.1 5 .9 7 2.4l.4.3v-6.6l-.1-.1c-2.2-1.1-4.7-1.7-7.1-1.7-8.2 0-11.1 4.8-11.1 9.3 0 3.9 1.6 6.5 5.5 8.7l5.1 3.1c2 1.2 2.9 2.4 2.9 3.8 0 2.2-1.9 3.7-4.8 3.7-2.8-.1-5.6-1-7.8-2.8l-.4-.3v6.8l.1.1c2.6 1.2 5.4 1.9 8.3 1.9 5.4 0 10.9-3 10.9-9.6.1-3.7-1.7-6.4-5.9-8.9zm-95.3 10.7l-7.6-25.9H184l10.9 33.2h6.4l11-33.2h-6.7l-7.5 25.9zm40.2-20.2l-.9-5.7h-18.5v33.2h19l.9-5.7h-14V50h9.6v-5.8h-9.6v-6.9h13.5zm-60.1 0l-.9-5.7h-18.5v33.2h19l.9-5.7h-13.9V50h9.6v-5.8h-9.6v-6.9h13.4zm-63 9.5l-5-3.1c-1.8-1.1-2.6-2.2-2.6-3.5 0-2.2 1.8-3.5 4.6-3.5 2.5.1 5 .9 7 2.4l.4.3v-6.6l-.1-.1c-2.2-1.1-4.7-1.7-7.1-1.7-8.2 0-11.1 4.8-11.1 9.3 0 3.9 1.6 6.5 5.5 8.7l5.1 3.1c2 1.2 2.9 2.4 2.9 3.8 0 2.2-1.9 3.7-4.8 3.7-2.8-.1-5.6-1-7.8-2.8l-.4-.3v6.8l.1.1c2.6 1.2 5.4 1.9 8.3 1.9 5.4 0 10.9-3 10.9-9.6 0-3.7-1.8-6.4-5.9-8.9zm10.2-15.2H153l-.9 5.7h-10.4v27.5h-6V37.3h-10.3v-5.7z"/><path class="st14" d="M218.4 83l.3-1.6h-3.4v-2h2.4v-1.6h-2.4v-1.7h3.4l-.3-1.6h-4.8V83h4.8zm-12 0h1.7v-6.8h2.1l.3-1.6h-6.1v1.6h2.1V83h-.1zm-46.8 0h1.7v-6.8h2.1l.3-1.6h-6.1v1.6h2.1V83h-.1zm-18.3 0h1.7v-6.8h2.1l.3-1.6h-6.1v1.6h2.1l-.1 6.8zm148.6-.8v-3.6h-3.2v1.5h1.5v1.1c-.4.2-.8.2-1.2.2-.5 0-1-.1-1.5-.3-.4-.2-.8-.5-1-.9s-.4-.9-.4-1.4c-.1-.8.2-1.5.7-2.1.6-.5 1.4-.8 2.1-.7.3 0 .7.1 1 .2l.9.3.5-1.6c-.4-.2-.8-.3-1.2-.4-.5-.1-1-.2-1.5-.2-.8 0-1.5.2-2.2.5-.7.4-1.2.9-1.6 1.6-.4.8-.6 1.7-.6 2.5s.2 1.5.5 2.1c.4.6.9 1.1 1.6 1.5s1.6.5 2.4.5c.4 0 .8 0 1.1-.1.4-.1.8-.2 1.1-.4.5 0 .8-.1 1-.3zm4.8.8h1.7v-2.9l3-5.6h-1.9l-1.9 3.9-1.9-3.9h-1.9l3 5.5-.1 3zM278 78.8c0-1.5-1.2-2.6-2.7-2.6s-2.6 1.2-2.6 2.7 1.2 2.6 2.7 2.6c1.4 0 2.6-1.2 2.6-2.7zm1.7 0c0 2.4-2 4.4-4.4 4.4s-4.4-2-4.4-4.4 2-4.4 4.4-4.4c2.4-.1 4.3 1.8 4.4 4.2v.2zM268.5 83l.3-1.6h-3.4v-6.8h-1.7V83h4.8zm-9.3-4.2c0-1.5-1.2-2.6-2.7-2.6s-2.6 1.2-2.6 2.7 1.2 2.6 2.7 2.6c1.4 0 2.6-1.2 2.6-2.7zm1.7 0c0 2.4-2 4.4-4.4 4.4s-4.4-2-4.4-4.4 2-4.4 4.4-4.4c2.4-.1 4.3 1.8 4.4 4.2v.2zm-19.2-4.3l.7 1V83h1.7v-5.1l3.6 5.1h1.7v-8.4h-1.7v5.6l-3.9-5.6-2.1-.1zm-4.9 8.5h1.7v-8.4h-1.7V78h-4v-3.4h-1.7V83h1.7v-3.5h4V83zm-9.2-2.2c-.6.5-1.3.7-2 .7-1.5-.1-2.6-1.4-2.5-2.9.1-1.4 1.2-2.5 2.5-2.5.7 0 1.4.2 2 .7v-1.9c-.6-.3-1.3-.5-2-.5-2.4.1-4.3 2.2-4.2 4.6.1 2.3 1.9 4.1 4.2 4.2.7 0 1.4-.2 2-.5v-1.9zm-31.5-1.4v-1.6h-2.9v-1.6h3.1l.3-1.6h-5.1V83h1.7v-3.6h2.9zm-9.8-.6c0-1.5-1.2-2.7-2.7-2.6-1.5 0-2.7 1.2-2.6 2.7 0 1.5 1.2 2.6 2.7 2.6 1.4 0 2.5-1.2 2.6-2.7zm1.7 0c0 2.4-2 4.4-4.4 4.4s-4.4-2-4.4-4.4 2-4.4 4.4-4.4c2.4-.1 4.3 1.8 4.4 4.2v.2zM171.2 83l.3-1.6h-3.4v-2h2.4v-1.6h-2.4v-1.7h3.4l-.3-1.6h-4.8V83h4.8zm-18.4-8.4V80c.1.8-.6 1.6-1.4 1.7-.8.1-1.6-.6-1.7-1.4V74.7H148V80c-.1 1.8 1.3 3.3 3 3.4s3.3-1.3 3.4-3v-5.7l-1.6-.1zM134.4 83h1.6v-8.4h-1.7l.1 8.4zm-6.9 0h1.7v-6.8h2.1l.3-1.6h-6.1v1.6h2.1c-.1 0-.1 6.8-.1 6.8zm-5.1-8.2c-.6-.3-1.2-.4-1.8-.4-2.2 0-2.9 1.3-2.9 2.4 0 1 .5 1.9 1.4 2.3l1.3.8c.4.2.6.5.6.9 0 .5-.4.8-1.1.8s-1.5-.3-2.1-.7v1.8c.7.3 1.4.4 2.1.4 1.4.2 2.6-.8 2.8-2.2.1-1.1-.5-2.2-1.5-2.6l-1.3-.8c-.3-.1-.5-.5-.5-.8 0-.4.3-.8 1-.8s1.3.2 1.9.6l.1-1.7zm-9.8 8.2h1.7v-8.4h-1.7v5.6l-3.9-5.6h-2v.1l.6.9V83h1.7v-5.1l3.6 5.1zm-10.9-8.4h1.7V83h-1.7v-8.4z"/></g><g id="RGB_Wordmark-2"><path class="st13" d="M227.2 209.8v18.7l-10.9-18.7h-6.7l2.3 3.6v24.8h5.1v-17.7l10.4 17.7h5v-28.3h-5.2v-.1zm23.4 13l-4.3-2.7c-1.5-.9-2.2-1.9-2.2-3 0-1.8 1.5-3 4-3 2.2 0 4.3.7 6 2l.3.2v-5.6l-.1-.1c-1.9-.9-4-1.4-6.1-1.5-7 0-9.4 4.1-9.4 8 0 3.3 1.4 5.5 4.7 7.4l4.4 2.7c1.7 1.1 2.5 2.1 2.5 3.2 0 1.9-1.6 3.1-4.1 3.1-2.4-.1-4.7-.9-6.6-2.4l-.3-.3v5.8l.1.1c2.2 1.1 4.6 1.6 7.1 1.6 4.6 0 9.3-2.5 9.3-8.2 0-3.2-1.5-5.5-5-7.6l-.3.3zm-81.3 9.1l-6.5-22.1h-5.6l9.3 28.4h5.5l9.3-28.4h-5.6l-6.4 22.1zm34.2-17.2l-.8-4.9H187v28.4h16.2l.8-4.9h-11.9v-7.8h8.2v-4.9h-8.2v-5.9h11.4zm-51.2 0l-.8-4.9h-15.8v28.4h16.2l.8-4.9h-11.9v-7.8h8.2v-4.9h-8.2v-5.9h11.5zm-53.7 8.1l-4.3-2.7c-1.5-.9-2.2-1.9-2.2-3 0-1.8 1.5-3 4-3 2.2 0 4.3.7 6 2l.3.2v-5.6l-.1-.1c-1.9-.9-4-1.4-6.1-1.5-7 0-9.4 4.1-9.4 8 0 3.3 1.4 5.5 4.7 7.4l4.4 2.7c1.7 1.1 2.5 2.1 2.5 3.2 0 1.9-1.6 3.1-4.1 3.1-2.4-.1-4.7-.9-6.7-2.4l-.3-.3v5.8l.1.1c2.2 1.1 4.6 1.6 7.1 1.6 4.6 0 9.3-2.5 9.3-8.2 0-3.2-1.5-5.5-5-7.6l-.2.3zm8.7-13h23.6l-.8 4.9h-8.8v23.5h-5.1v-23.5h-8.8l-.1-4.9z"/><path class="st14" d="M186.5 253.6l.2-1.4h-2.9v-1.7h2v-1.4h-2v-1.4h2.9l-.2-1.4h-4.1v7.2l4.1.1zm-10.2 0h1.4v-5.8h1.8l.2-1.4h-5.2v1.4h1.8v5.8zm-39.9 0h1.4v-5.8h1.8l.2-1.4h-5.2v1.4h1.8v5.8zm-15.6 0h1.4v-5.8h1.8l.2-1.4H119v1.4h1.8v5.8zm126.7-.7v-3.1h-2.7v1.3h1.2v1c-.3.1-.7.2-1 .2-.4 0-.9-.1-1.2-.3-.4-.2-.7-.4-.9-.8-.2-.4-.3-.8-.3-1.2 0-.7.2-1.3.6-1.8.5-.4 1.2-.6 1.8-.6.3 0 .6.1.8.1.3.1.5.2.8.3l.5-1.3c-.3-.2-.7-.3-1-.4-.4-.1-.8-.2-1.2-.1-.7 0-1.3.1-1.9.4-.6.3-1 .8-1.4 1.3-.4.7-.5 1.4-.5 2.2 0 .6.2 1.3.5 1.8s.8 1 1.4 1.2c.6.3 1.3.5 2 .4.3 0 .6 0 .9-.1.3-.1.7-.2 1-.3.3.1.5 0 .6-.2zm4.1.7h1.4v-2.5l2.5-4.7H254l-1.6 3.3-1.6-3.3h-1.6l2.5 4.7-.1 2.5zm-14.3-3.6c0-1.3-1-2.3-2.3-2.2s-2.3 1-2.2 2.3c0 1.2 1 2.2 2.3 2.2 1.2 0 2.2-1 2.2-2.3zm1.5 0c0 2.1-1.7 3.7-3.7 3.7s-3.7-1.7-3.7-3.7c0-2.1 1.7-3.7 3.7-3.7s3.7 1.6 3.7 3.7c0-.1 0-.1 0 0zm-9.5 3.6l.2-1.4h-2.9v-5.8h-1.4v7.2h4.1zm-8-3.6c0-1.3-1-2.3-2.3-2.2s-2.3 1-2.2 2.3c0 1.2 1 2.2 2.3 2.2 1.2 0 2.2-1 2.2-2.3zm1.5 0c0 2.1-1.7 3.7-3.7 3.7-2.1 0-3.7-1.7-3.7-3.7 0-2.1 1.7-3.7 3.7-3.7s3.7 1.6 3.7 3.7c0-.1 0-.1 0 0zm-16.4-3.6l.6.9v6.3h1.4v-4.3l3.1 4.3h1.4v-7.2h-1.4v4.8l-3.3-4.8h-1.8zm-4.2 7.2h1.4v-7.2h-1.4v2.9h-3.4v-2.9h-1.4v7.2h1.4v-2.9h3.4v2.9zm-7.8-1.9c-.5.4-1.1.6-1.7.6-1.3-.1-2.2-1.2-2.2-2.5.1-1.2 1-2.1 2.2-2.2.6 0 1.2.2 1.7.6v-1.6c-.5-.3-1.1-.4-1.7-.4-2.1.1-3.6 1.9-3.5 3.9.1 1.9 1.6 3.4 3.5 3.5.6 0 1.2-.1 1.7-.4v-1.5zm-26.9-1.2v-1.4h-2.4v-1.4h2.7l.2-1.4h-4.3v7.2h1.4v-3.1l2.4.1zm-8.4-.5c0-1.3-1-2.3-2.3-2.2s-2.3 1-2.2 2.3c0 1.2 1 2.2 2.3 2.2 1.2 0 2.2-1 2.2-2.3zm1.5 0c0 2.1-1.7 3.7-3.7 3.7s-3.7-1.7-3.7-3.7c0-2.1 1.7-3.7 3.7-3.7s3.7 1.6 3.7 3.7c0-.1 0-.1 0 0zm-14.3 3.6l.2-1.4h-2.9v-1.7h2.1v-1.4h-2.1v-1.4h2.9l-.2-1.4h-4.1v7.2l4.1.1zm-15.7-7.2v4.6c0 .7-.6 1.3-1.3 1.3s-1.3-.6-1.3-1.3v-4.6h-1.4v4.6c0 1.5 1.2 2.7 2.7 2.7 1.5 0 2.7-1.2 2.7-2.7v-4.5l-1.4-.1zm-15.7 7.2h1.4v-7.2h-1.4v7.2zm-5.8 0h1.4v-5.8h1.8l.2-1.4h-5.2v1.4h1.8c-.1 0-.1 5.8 0 5.8zm-4.4-7c-.5-.2-1-.3-1.5-.3-1.8 0-2.5 1.1-2.5 2.1 0 .8.5 1.6 1.2 1.9l1.1.7c.3.1.5.4.5.8s-.3.7-1 .7c-.6 0-1.2-.2-1.8-.6v1.6c.6.2 1.2.4 1.8.4 1.2.1 2.3-.7 2.4-1.9.1-.9-.4-1.9-1.3-2.2l-1.1-.6c-.3-.1-.4-.4-.4-.7 0-.4.3-.7.9-.7s1.1.2 1.6.5l.1-1.7zm-8.4 7h1.4v-7.2h-1.4v4.8l-3.3-4.8h-1.7v.1l.5.8v6.3h1.4v-4.3l3.1 4.3zm-9.2-7.2h1.4v7.2h-1.4v-7.2z"/></g></svg>